<svg xmlns="http://www.w3.org/2000/svg" viewBox="0 0 40 40" fill="#E82334">
  <ellipse cx="20" cy="15" rx="4.5" ry="5.5"/>
  <ellipse cx="20" cy="26" rx="3.5" ry="5"/>
  <rect x="19" y="20" width="2" height="2" rx="0.5"/>
  <path d="M16 13 Q10 8 5 7" stroke="#E82334" stroke-width="1.3" fill="none" stroke-linecap="round"/>
  <path d="M24 13 Q30 8 35 7" stroke="#E82334" stroke-width="1.3" fill="none" stroke-linecap="round"/>
  <path d="M15 16 Q8 14 3 15" stroke="#E82334" stroke-width="1.3" fill="none" stroke-linecap="round"/>
  <path d="M25 16 Q32 14 37 15" stroke="#E82334" stroke-width="1.3" fill="none" stroke-linecap="round"/>
  <path d="M15 19 Q9 23 4 25" stroke="#E82334" stroke-width="1.3" fill="none" stroke-linecap="round"/>
  <path d="M25 19 Q31 23 36 25" stroke="#E82334" stroke-width="1.3" fill="none" stroke-linecap="round"/>
  <path d="M17 26 Q11 31 6 34" stroke="#E82334" stroke-width="1.3" fill="none" stroke-linecap="round"/>
  <path d="M23 26 Q29 31 34 34" stroke="#E82334" stroke-width="1.3" fill="none" stroke-linecap="round"/>
</svg>
